<mxfile host="app.diagrams.net" modified="2020-11-27T09:02:04.015Z" agent="5.0 (Macintosh; Intel Mac OS X 10_14_6) AppleWebKit/537.36 (KHTML, like Gecko) Chrome/86.0.4240.111 Safari/537.36" etag="Sqzf77EUDrzam-353iEQ" version="13.10.4" type="github">
  <diagram id="prtHgNgQTEPvFCAcTncT" name="Page-1">
    <mxGraphModel dx="1077" dy="570" grid="1" gridSize="10" guides="1" tooltips="1" connect="1" arrows="1" fold="1" page="1" pageScale="1" pageWidth="827" pageHeight="1169" math="0" shadow="0">
      <root>
        <mxCell id="0" />
        <mxCell id="1" parent="0" />
        <mxCell id="8uargiivEpX5JbYy6IFa-6" value="" style="shape=cube;whiteSpace=wrap;html=1;boundedLbl=1;backgroundOutline=1;darkOpacity=0.05;darkOpacity2=0.1;rotation=0;" vertex="1" parent="1">
          <mxGeometry x="414" y="300" width="300" height="240" as="geometry" />
        </mxCell>
        <mxCell id="8uargiivEpX5JbYy6IFa-1" value="收款机" style="whiteSpace=wrap;html=1;aspect=fixed;" vertex="1" parent="1">
          <mxGeometry x="240" y="380" width="80" height="80" as="geometry" />
        </mxCell>
        <mxCell id="8uargiivEpX5JbYy6IFa-2" value="" style="shape=actor;whiteSpace=wrap;html=1;" vertex="1" parent="1">
          <mxGeometry x="140" y="380" width="40" height="60" as="geometry" />
        </mxCell>
        <mxCell id="8uargiivEpX5JbYy6IFa-3" value="收款机后台计算系统" style="whiteSpace=wrap;html=1;aspect=fixed;" vertex="1" parent="1">
          <mxGeometry x="470" y="330" width="80" height="80" as="geometry" />
        </mxCell>
        <mxCell id="8uargiivEpX5JbYy6IFa-4" value="管理系统" style="whiteSpace=wrap;html=1;aspect=fixed;" vertex="1" parent="1">
          <mxGeometry x="470" y="450" width="80" height="80" as="geometry" />
        </mxCell>
        <mxCell id="8uargiivEpX5JbYy6IFa-5" value="数据库" style="shape=cylinder3;whiteSpace=wrap;html=1;boundedLbl=1;backgroundOutline=1;size=15;" vertex="1" parent="1">
          <mxGeometry x="600" y="390" width="60" height="80" as="geometry" />
        </mxCell>
        <mxCell id="8uargiivEpX5JbYy6IFa-7" value="" style="endArrow=classic;html=1;exitX=1;exitY=0.5;exitDx=0;exitDy=0;entryX=0;entryY=0.5;entryDx=0;entryDy=0;" edge="1" parent="1" source="8uargiivEpX5JbYy6IFa-1" target="8uargiivEpX5JbYy6IFa-3">
          <mxGeometry width="50" height="50" relative="1" as="geometry">
            <mxPoint x="450" y="410" as="sourcePoint" />
            <mxPoint x="500" y="360" as="targetPoint" />
          </mxGeometry>
        </mxCell>
        <mxCell id="8uargiivEpX5JbYy6IFa-8" value="" style="endArrow=classic;html=1;entryX=0.5;entryY=0;entryDx=0;entryDy=0;exitX=0.5;exitY=1;exitDx=0;exitDy=0;" edge="1" parent="1" source="8uargiivEpX5JbYy6IFa-3" target="8uargiivEpX5JbYy6IFa-4">
          <mxGeometry width="50" height="50" relative="1" as="geometry">
            <mxPoint x="450" y="410" as="sourcePoint" />
            <mxPoint x="500" y="360" as="targetPoint" />
          </mxGeometry>
        </mxCell>
        <mxCell id="8uargiivEpX5JbYy6IFa-9" value="" style="endArrow=classic;html=1;" edge="1" parent="1">
          <mxGeometry width="50" height="50" relative="1" as="geometry">
            <mxPoint x="550" y="500" as="sourcePoint" />
            <mxPoint x="600" y="450" as="targetPoint" />
          </mxGeometry>
        </mxCell>
        <mxCell id="8uargiivEpX5JbYy6IFa-10" value="" style="endArrow=classic;startArrow=classic;html=1;entryX=0;entryY=0.5;entryDx=0;entryDy=0;" edge="1" parent="1" target="8uargiivEpX5JbYy6IFa-1">
          <mxGeometry width="50" height="50" relative="1" as="geometry">
            <mxPoint x="181" y="420" as="sourcePoint" />
            <mxPoint x="220" y="390" as="targetPoint" />
          </mxGeometry>
        </mxCell>
      </root>
    </mxGraphModel>
  </diagram>
</mxfile>
